<?xml version="1.0" encoding="UTF-8"?>
<svg id="_Слой_2" data-name="Слой 2" xmlns="http://www.w3.org/2000/svg" viewBox="0 0 857.45 1139.6">
  <defs>
    <style>
      .cls-1 {
        fill: #b0b0b0;
        stroke-width: 0px;
      }
    </style>
  </defs>
  <g id="_Слой_1-2" data-name="Слой 1">
    <g>
      <path class="cls-1" d="M428.41,415.28c35.6,0,70.09,10.24,99.75,29.62,30.07,19.65,53.69,47.8,68.32,81.39,8.37,19.24,13.05,40.07,14.31,63.67.49,9.14.94,18.51,1.37,27.57,1.59,33.24,3.24,67.61,7.16,101.97,7.82,68.63,27.95,130.62,59.85,184.25,18.09,30.44,40.07,58.03,65.34,82.01,3.71,3.52,7.39,6.91,10.95,10.19,5.23,4.82,10.17,9.37,14.79,13.94,1.89,1.86,3.54,3.77,4.97,5.76-11.6.01-24.17.02-38.22.02-13.13,0-26.26,0-39.4-.01-13.15,0-26.29-.01-39.44-.01h-366.7c-20.31,0-40.63-.02-60.94-.04-20.35-.02-40.7-.04-61.05-.04-33.5,0-61.17.06-86.61.18,2.43-3.42,5.73-7.28,10.27-11.66l3.06-2.96c17.92-17.29,36.45-35.16,53.31-55.78,38.33-46.87,64.67-104.62,80.52-176.57,12.9-58.59,15.33-115.55,16.99-178.62,1.04-39.73,16.35-79,43.11-110.57,26.76-31.56,63.01-53.15,102.09-60.79,11.98-2.34,24.16-3.53,36.2-3.53M428.41,365.28c-15.12,0-30.43,1.46-45.8,4.46-103.67,20.26-182.82,113.44-185.59,219.12-1.5,56.76-3.57,113.42-15.84,169.18-12.53,56.88-33.23,110.22-70.4,155.66-15.89,19.43-34.28,36.93-52.39,54.41-14.77,14.25-26.06,30.09-30.84,50.22-.71,2.98-1.7,5.9-2.55,8.84v18.92c6.59,14.97,18.13,19.79,34.05,19.79.19,0,.39,0,.58,0,36.61-.25,73.22-.32,109.83-.32,40.67,0,81.33.08,121.99.08h366.7c26.27,0,52.56.02,78.83.02,21.83,0,43.65-.01,65.48-.07,20.66-.05,31.19-11.16,29.88-31.68-1.49-23.19-10.4-43.24-26.98-59.61-8.6-8.49-17.67-16.49-26.45-24.82-22.24-21.11-41.11-44.93-56.77-71.28-30.18-50.75-46.53-106.27-53.15-164.36-4.78-41.95-6.04-84.32-8.28-126.54-1.5-28.12-7.19-55.23-18.38-80.96-38.04-87.39-122.17-141.07-213.92-141.07h0Z"/>
      <path class="cls-1" d="M451.14,1087.3c-6.69,1.54-14.01,2.31-22.01,2.31-.76,0-1.52,0-2.28-.02-7.24-.13-13.92-.89-20.07-2.29h44.35M556.38,1037.3h-255.1c18.85,62.61,58.87,101.09,124.65,102.28,1.07.02,2.13.03,3.19.03,66.81,0,107.83-38.52,127.26-102.31h0Z"/>
      <path class="cls-1" d="M593.7,53.41c6.51,17.86,10.02,36.77,10.29,55.89.42,30.3-7.42,60.28-22.68,86.72-14.85,25.71-36.18,47.09-61.7,61.82-15.84,9.15-33.09,15.65-50.95,19.31-6.51-17.86-10.02-36.77-10.29-55.89-.42-30.3,7.42-60.28,22.68-86.72,14.85-25.71,36.18-47.09,61.7-61.82,15.84-9.15,33.09-15.65,50.95-19.31M623.55,0c-74.23,1.39-145.96,40.52-185.8,109.53-40.95,70.93-37.73,155.18,1.06,221.01,74.23-1.39,145.96-40.52,185.8-109.53,40.95-70.93,37.74-155.18-1.06-221.01h0Z"/>
    </g>
  </g>
</svg>