<?xml version="1.0" encoding="UTF-8"?>
<svg id="_Слой_2" data-name="Слой 2" xmlns="http://www.w3.org/2000/svg" viewBox="0 0 2809 2809">
  <defs>
    <style>
      .cls-1 {
        fill: none;
        stroke: #fff;
        stroke-linecap: round;
        stroke-linejoin: round;
        stroke-width: 100px;
      }

      .cls-2 {
        fill: #4d7b4a;
      }

      .cls-2, .cls-3 {
        stroke-width: 0px;
      }

      .cls-3 {
        fill: #fff;
      }
    </style>
  </defs>
  <g id="_Слой_1-2" data-name="Слой 1">
    <g>
      <rect class="cls-2" width="2809" height="2809" rx="570.02" ry="570.02"/>
      <g>
        <path class="cls-3" d="M254.84,1295.82v694.37h182.74v-694.37h-182.74Z"/>
        <path class="cls-3" d="M1085.89,1057.06h252.72l-382.32,384.91,401.76,548.21h-250.13l-289.01-406.95-92.02,94.61v312.34h-191.81v-933.12h191.81v384.91l358.99-384.91Z"/>
        <path class="cls-3" d="M2262.63,1104.42h178.85v193.1h112.75v128.3h-112.75v364.18c0,28.51,3.89,45.36,10.37,53.14,7.78,6.48,29.81,10.37,66.1,10.37,6.48,0,11.66,0,18.14-1.3h18.14v134.78l-85.54,2.59c-85.54,3.89-143.86-11.66-174.96-44.06-20.74-20.74-31.1-51.84-31.1-95.9v-423.79h-95.9v-128.3h95.9v-193.1Z"/>
        <path class="cls-3" d="M472.77,882.71c9.25,23.07,14.23,47.76,14.58,72.74.51,36.21-8.86,72.04-27.1,103.63-17.74,30.72-43.24,56.27-73.74,73.88-20.78,12-43.58,20.19-67.15,24.25-9.25-23.07-14.23-47.76-14.58-72.74-.51-36.21,8.86-72.04,27.1-103.63,17.74-30.72,43.24-56.27,73.74-73.88,20.78-12,43.58-20.19,67.15-24.25M502.33,829.82c-85.4,1.6-167.91,46.61-213.75,126.01-47.11,81.6-43.41,178.53,1.22,254.25,85.4-1.6,167.91-46.61,213.75-126.01,47.11-81.6,43.41-178.53-1.22-254.25h0Z"/>
        <path class="cls-1" d="M1732.08,1321.7c-.3-.54-8.52-13.46-13.36-19.22-1.68-2.01-3.45-4-5.31-5.99-1.49-1.6-3.04-3.19-4.64-4.77-.61-.61-1.23-1.19-1.87-1.76-15.58-14.19-37.31-19.64-57.87-14.5-14.95,3.75-49.35,15.98-52.11,17.12-111.83,45.87-197.25,142.94-227.1,262.04-7.52,30.01-11.52,61.43-11.52,93.77,0,141.17,76.1,264.56,189.5,331.41,26.48,15.61,60.41,9.96,80.24-13.51,31.58-37.39,70.52-59.46,112.65-59.46s82.02,22.62,113.8,60.84c19.6,23.57,53.45,29.3,80,13.99,115.15-66.41,192.67-190.78,192.67-333.27,0-32.34-4-63.76-11.52-93.77-32.42-129.32-130.34-232.67-256.47-272.7-7.6-2.42-15.31-4.6-23.11-6.54-16.75-4.18-34.29-1.18-48.59,7.81-3.02,1.89-5.88,4.05-8.57,6.47-.75.67-1.48,1.36-2.19,2.06-1.21,1.2-2.4,2.4-3.54,3.61-2.56,2.68-4.96,5.38-7.21,8.11-4.2,5.08-12.09,17.4-12.63,18.37l-21.25-.12Z"/>
        <path class="cls-3" d="M1916.72,871.71c9.25,23.07,14.23,47.76,14.58,72.74.51,36.21-8.86,72.04-27.1,103.63-17.74,30.72-43.23,56.27-73.74,73.88-20.78,12-43.58,20.19-67.15,24.25-9.25-23.07-14.23-47.76-14.58-72.74-.51-36.21,8.86-72.04,27.1-103.63,17.74-30.72,43.23-56.27,73.74-73.88,20.78-12,43.58-20.19,67.15-24.25M1946.28,818.82c-85.4,1.6-167.91,46.61-213.75,126.01-47.11,81.6-43.41,178.53,1.22,254.25,85.4-1.6,167.91-46.61,213.75-126.01,47.11-81.6,43.41-178.53-1.22-254.25h0Z"/>
        <ellipse class="cls-3" cx="1591.33" cy="1632.06" rx="107.25" ry="134.25"/>
        <ellipse class="cls-3" cx="1882.2" cy="1631.78" rx="107.25" ry="134.25"/>
      </g>
    </g>
  </g>
</svg>