<?xml version="1.0" encoding="UTF-8"?>
<svg id="_Слой_2" data-name="Слой 2" xmlns="http://www.w3.org/2000/svg" viewBox="0 0 807.45 1164.6">
  <defs>
    <style>
      .cls-1 {
        fill: #fff;
        stroke: #4d7b4a;
        stroke-miterlimit: 10;
        stroke-width: 50px;
      }

      .cls-2 {
        fill: #4d7b4a;
        stroke-width: 0px;
      }
    </style>
  </defs>
  <g id="_Слой_1-2" data-name="Слой 1">
    <g>
      <path class="cls-2" d="M807.34,1033.92c-1.49-23.19-10.4-43.24-26.98-59.61-8.6-8.49-17.67-16.49-26.45-24.82-22.24-21.11-41.11-44.93-56.77-71.28-30.18-50.75-46.53-106.27-53.15-164.36-4.78-41.95-6.04-84.32-8.28-126.54-1.5-28.12-7.19-55.23-18.38-80.96-44.31-101.8-151.14-157.84-259.72-136.61-103.67,20.26-182.82,113.44-185.59,219.12-1.5,56.76-3.57,113.42-15.84,169.18-12.53,56.88-33.23,110.22-70.4,155.66-15.89,19.43-34.28,36.93-52.39,54.41-14.77,14.25-26.06,30.09-30.84,50.22-.71,2.98-1.7,5.89-2.55,8.84v18.92c6.67,15.16,18.42,19.91,34.64,19.79,77.27-.53,154.55-.24,231.82-.24h366.7c48.1,0,96.21.07,144.31-.05,20.66-.05,31.19-11.16,29.88-31.68Z"/>
      <path class="cls-1" d="M531.38,1037.3c-19.73,64.8-61.75,103.52-130.44,102.28-65.79-1.19-105.8-39.67-124.65-102.28h255.1Z"/>
      <path class="cls-2" d="M412.75,109.53c-40.95,70.93-37.74,155.18,1.06,221.01,74.23-1.39,145.96-40.52,185.8-109.53,40.95-70.93,37.74-155.18-1.06-221.01-74.23,1.39-145.96,40.52-185.8,109.53Z"/>
    </g>
  </g>
</svg>