<?xml version="1.0" encoding="UTF-8"?>
<svg id="_Слой_2" data-name="Слой 2" xmlns="http://www.w3.org/2000/svg" viewBox="0 0 986.99 1139.6">
  <defs>
    <style>
      .cls-1 {
        fill: #4d7b4a;
        stroke-width: 0px;
      }
    </style>
  </defs>
  <g id="_Слой_1-2" data-name="Слой 1">
    <g>
      <path class="cls-1" d="M890.38,613.31h-15.5c-1.51,0-2.97-.55-4.12-1.53l-20.51-17.75c-4.08-3.54-10.43-.63-10.43,4.77v534.49c0,3.48-2.83,6.3-6.3,6.3h-273.42c-3.48,0-6.3-2.83-6.3-6.3v-218.73h-.1c-7.8-50.74-51.65-89.6-104.58-89.6s-96.78,38.85-104.58,89.6h-.1v218.73c0,3.48-2.83,6.3-6.3,6.3H63.54c-3.48,0-6.3-2.83-6.3-6.3v-534.51c0-5.4-6.35-8.31-10.43-4.77l-20.53,17.76c-1.14.98-2.61,1.53-4.12,1.53H6.32c-5.85,0-8.55-7.25-4.13-11.07l37.46-32.4,17.59-15.22,32.68-28.26L444.22,219.88c2.37-2.05,5.89-2.05,8.26,0l354.31,306.48,33.02,28.56,17.24,14.92,37.46,32.4c4.42,3.82,1.72,11.07-4.13,11.07Z"/>
      <path class="cls-1" d="M726.22,132.08c-49.38,85.53-45.5,187.13,1.28,266.51,89.51-1.68,176-48.86,224.05-132.08,49.38-85.53,45.5-187.13-1.28-266.51-89.51,1.68-176,48.86-224.05,132.08Z"/>
    </g>
  </g>
</svg>