<?xml version="1.0" encoding="UTF-8"?>
<svg id="_Слой_2" data-name="Слой 2" xmlns="http://www.w3.org/2000/svg" viewBox="0 0 986.99 1139.6">
  <defs>
    <style>
      .cls-1 {
        fill: #b0b0b0;
        stroke-width: 0px;
      }
    </style>
  </defs>
  <g id="_Слой_1-2" data-name="Слой 1">
    <g>
      <path class="cls-1" d="M448.35,282.42l325.73,281.76,18.81,16.27c-2.02,5.86-3.09,12.06-3.09,18.35v490.8h-186.03v-175.03c0-3.98-.47-7.86-1.35-11.57-13.36-74.43-77.22-128.03-153.34-128.03s-139.98,53.6-153.34,128.03c-.88,3.71-1.35,7.59-1.35,11.57v175.03H107.24v-490.81c0-6.51-1.11-12.76-3.15-18.59l18.54-16.03,325.73-281.76M448.35,218.34c-1.47,0-2.95.51-4.13,1.54L89.91,526.36l-32.68,28.26-17.59,15.22-37.46,32.4c-4.42,3.82-1.72,11.07,4.13,11.07h15.83c1.51,0,2.97-.55,4.12-1.53l20.53-17.76c1.24-1.07,2.68-1.55,4.09-1.55,3.26,0,6.34,2.55,6.34,6.32v534.51c0,3.48,2.83,6.3,6.3,6.3h274.56c3.48,0,6.3-2.83,6.3-6.3v-218.73h.1c7.8-50.74,51.65-89.6,104.58-89.6s96.78,38.85,104.58,89.6h.1v218.73c0,3.48,2.83,6.3,6.3,6.3h273.42c3.48,0,6.3-2.83,6.3-6.3v-534.49c0-3.77,3.09-6.32,6.35-6.32,1.41,0,2.85.48,4.09,1.55l20.51,17.75c1.14.98,2.61,1.53,4.12,1.53h15.5c5.85,0,8.55-7.25,4.13-11.07l-37.46-32.4-17.24-14.92-33.02-28.56L452.48,219.88c-1.18-1.02-2.66-1.54-4.13-1.54h0Z"/>
      <path class="cls-1" d="M920.79,52.74c10.27,24.97,15.81,51.78,16.19,78.91.54,38.39-9.4,76.38-28.73,109.86-18.8,32.57-45.83,59.65-78.17,78.32-22.59,13.04-47.43,21.85-73.1,26.02-10.27-24.97-15.81-51.78-16.19-78.91-.54-38.39,9.4-76.38,28.73-109.86,18.8-32.57,45.83-59.65,78.17-78.32,22.59-13.04,47.43-21.85,73.1-26.02M950.26,0c-89.51,1.68-176,48.86-224.05,132.08-49.38,85.53-45.5,187.13,1.28,266.51,89.51-1.68,176-48.86,224.05-132.08,49.38-85.53,45.5-187.13-1.28-266.51h0Z"/>
    </g>
  </g>
</svg>