<?xml version="1.0" encoding="UTF-8"?>
<svg id="_Слой_2" data-name="Слой 2" xmlns="http://www.w3.org/2000/svg" viewBox="0 0 1009.4 1208.37">
  <defs>
    <style>
      .cls-1 {
        fill: #b0b0b0;
        stroke-width: 0px;
      }
    </style>
  </defs>
  <g id="_Слой_1-2" data-name="Слой 1">
    <g>
      <g>
        <path class="cls-1" d="M595.93,773.22c-17.48,33.76-41.07,64.43-69.91,90.2l55.18,45.61c2.69-9.37,7.31-18.36,13.92-26.35l35.56-43.02c6.58-7.97,14.5-14.18,23.16-18.59l-57.91-47.85h0Z"/>
        <path class="cls-1" d="M315.69,362.22c26.66,0,53.15,4.04,78.74,11.99,25.36,7.89,49.34,19.48,71.26,34.44,45.45,31.02,79.67,74.79,98.96,126.57,13.33,35.79,18.77,73.07,16.17,110.8-2.52,36.5-12.37,71.55-29.29,104.21-14.93,28.83-34.72,54.36-58.83,75.91-24.62,22-52.97,39.07-84.26,50.73-29.92,11.14-61.1,16.79-92.67,16.79-26.67,0-53.16-4.04-78.74-11.99-25.36-7.89-49.34-19.48-71.27-34.44-45.45-31.02-79.67-74.78-98.96-126.58-12.52-33.62-18.09-68.67-16.54-104.15,1.5-34.3,9.53-67.62,23.89-99.01,14.36-31.4,34.29-59.27,59.26-82.84,25.83-24.39,55.97-43.1,89.6-55.63,29.91-11.14,61.09-16.79,92.68-16.79h0M315.67,312.22c-36.59,0-73.82,6.41-110.12,19.93C42.2,393-40.91,574.75,19.94,738.1c47.32,127.06,167.76,205.55,295.83,205.55,36.59,0,73.82-6.41,110.12-19.93,37.99-14.15,71.63-34.83,100.13-60.3,28.84-25.77,52.43-56.44,69.91-90.2,39.57-76.36,47.96-168.51,15.58-255.45-47.33-127.06-167.77-205.56-295.84-205.55h0Z"/>
        <path class="cls-1" d="M687.1,863.11c3.77,0,9.37.92,14.68,5.3l249.22,205.97c6.43,5.31,7.96,12.08,8.29,15.64.34,3.56.11,10.49-5.2,16.92l-35.56,43.03c-4.41,5.34-10.92,8.4-17.87,8.4-3.78,0-9.4-.92-14.7-5.3l-249.21-205.96c-7.11-5.87-10.05-15.39-7.5-24.28.87-3.02,2.34-5.81,4.4-8.29l35.58-43.04c2.04-2.47,4.49-4.44,7.29-5.87,3.24-1.65,6.89-2.52,10.57-2.52h0M687.1,813.11c-11.47,0-22.9,2.69-33.26,7.96-8.66,4.41-16.58,10.62-23.16,18.59l-35.56,43.02c-6.61,7.99-11.23,16.98-13.92,26.35-7.8,27.12.57,57.49,23.7,76.61l249.22,205.96c13.64,11.27,30.14,16.76,46.55,16.76,21.05,0,41.95-9.05,56.41-26.54l35.56-43.03c25.73-31.13,21.35-77.22-9.79-102.95l-249.22-205.97c-13.63-11.27-30.13-16.76-46.53-16.76h0Z"/>
      </g>
      <path class="cls-1" d="M532.28,61.65c10.36,10.78,19.08,23.12,25.76,36.59,11.66,23.49,16.75,49.84,14.72,76.19-1.97,25.63-10.64,50.31-25.05,71.35-8.1,11.82-17.9,22.39-29.01,31.35-10.36-10.78-19.08-23.12-25.76-36.59-11.66-23.49-16.75-49.84-14.72-76.19,1.97-25.63,10.64-50.31,25.05-71.35,8.1-11.82,17.9-22.39,29.01-31.35M536.16,0c-59.48,29.88-102.31,89.29-107.8,160.51-5.64,73.2,29.59,140.08,86.45,178.27,59.48-29.88,102.31-89.29,107.8-160.51,5.64-73.2-29.59-140.08-86.45-178.27h0Z"/>
      <path class="cls-1" d="M709.07,199.41c17.01,0,33.78,2.95,49.63,8.64-3.81,14.46-9.81,28.34-17.84,41.06-13.99,22.19-33.84,40.24-57.4,52.23-20.81,10.58-43.08,15.95-66.21,15.95-17.01,0-33.78-2.94-49.63-8.64,3.81-14.46,9.81-28.33,17.84-41.06,13.99-22.19,33.84-40.24,57.4-52.23,20.81-10.58,43.08-15.95,66.21-15.95M709.07,149.41c-29.95,0-60.35,6.87-88.87,21.38-65.44,33.28-104.21,98.17-107.23,166.6,31.17,19.45,67.39,29.89,104.29,29.89,29.95,0,60.35-6.87,88.87-21.38,65.44-33.28,104.21-98.17,107.23-166.6-31.17-19.45-67.39-29.89-104.29-29.89h0Z"/>
    </g>
  </g>
</svg>