<?xml version="1.0" encoding="UTF-8"?>
<svg id="_Слой_2" data-name="Слой 2" xmlns="http://www.w3.org/2000/svg" viewBox="0 0 1050.61 809.36">
  <defs>
    <style>
      .cls-1 {
        fill: #b0b0b0;
        stroke-width: 0px;
      }
    </style>
  </defs>
  <g id="_Слой_1-2" data-name="Слой 1">
    <g>
      <path class="cls-1" d="M523.63,809.28s.03.05.05.08c.54,0,1.09-.02,1.63-.04-.56,0-1.12-.02-1.68-.04h0Z"/>
      <path class="cls-1" d="M103.34,51.46c70.91,5.69,140.27,26.93,202.22,62.09,35.74,20.29,68.78,45.05,98.18,73.61,30.3,29.43,56.76,62.9,78.64,99.5l42.91,71.78,42.92-71.78c21.88-36.6,48.34-70.07,78.64-99.5,29.4-28.55,62.44-53.32,98.18-73.61,61.95-35.16,131.32-56.4,202.22-62.09,33.9,66.51,52.25,140.29,53.29,215.13.6,42.86-4.48,85.58-15.11,126.98-10.97,42.73-27.83,83.97-50.12,122.59-21.57,37.36-47.84,71.58-78.08,101.7-29.31,29.21-62.36,54.59-98.23,75.44-70.77,41.14-151.44,63.96-233.29,66h-.28s-.15.01-.15.01h-.15s-.28-.01-.28-.01c-81.86-2.04-162.53-24.86-233.3-66-35.86-20.85-68.91-46.23-98.22-75.43-30.24-30.13-56.51-64.35-78.07-101.7-22.29-38.61-39.16-79.86-50.12-122.59-10.62-41.4-15.71-84.12-15.11-126.98,1.05-74.85,19.39-148.62,53.29-215.13M976.03,0c-179.17,3.36-352.37,96.49-450.73,261C426.95,96.49,253.75,3.36,74.58,0c-95,161.18-102.87,367.49-2.6,541.16,96.97,167.97,271.06,263.63,451.65,268.12.56.02,1.12.03,1.68.04.56,0,1.11-.02,1.67-.04,180.58-4.49,354.67-100.15,451.65-268.12,100.27-173.67,92.4-379.98-2.6-541.16h0Z"/>
      <path class="cls-1" d="M526.98,809.28c-.56.02-1.11.03-1.67.04.54.02,1.08.03,1.62.04.02-.03.03-.05.05-.08h0Z"/>
    </g>
  </g>
</svg>